@startuml class diagram

'clases'
class Klondike
class Player
class Pile
class Foundation
class Waste
class Stock
class Move{
    - from: Stack
    - card: Card
    - to: Stack
}
class Goal
class Pile
class Deck{
    - cardList: List
}
class Club
class Diamond
class Heart
class Spade
class FilledFoundation

'absract clases'
abstract Stack{
    - cardList: List
    # validMove(): boolean
}
abstract Card{
    - color: Color
    - rank:Rank
    - upTurnCard: boolean
}

'enum clases'
enum Rank{
    A
    2
    3
    4
    5
    6
    7
    8
    9
    10
    J
    Q
    K
}
enum Color{
    RED
    BLACK
}

'relations'

Klondike *-down- Player
Klondike *-down- Foundation: 4
Klondike *-down- Waste: 1
Klondike *-down- Pile: 7
Klondike *-down- Stock: 1
Klondike *-down- Deck: 1

Deck o-- Card: 52


Stack <|-down- Foundation
Stack <|-down- Waste
Stack <|-down- Stock
Stack <|-down- Pile
Stack o-down- Card

Move o-down- Stack
Move -down-> Card

Player .down.> Move: 1..*
Player .down.> Goal

Goal <|-down- FilledFoundation
FilledFoundation .right.> "4" Foundation


Card <|-down- Club
Card <|-down- Diamond
Card <|-down- Heart
Card <|-down- Spade
Card *-down- Rank
Card *-down- Color


@enduml